<svg width="191" height="100" viewBox="0 0 191 100" fill="none" xmlns="http://www.w3.org/2000/svg">
<path fill-rule="evenodd" clip-rule="evenodd" d="M74.1657 0.282372C53.3961 0.847116 27.545 9.51997 22.4231 28.6809H29.9244C33.3524 7.42235 70.0522 0.887455 84.4094 0.443727C85.0547 0.403388 85.7403 0.403388 86.4259 0.403388C82.5139 0.201694 78.4407 0.161355 74.1657 0.282372ZM32.6265 41.5893H22.4635C25.8108 51.7951 37.9096 58.6527 53.5978 60.1049L55.8159 49.7781C43.9994 49.3747 36.4578 46.4703 32.6265 41.5893ZM185.959 37.3134C144.823 5.6071 105.381 0.242033 86.4662 0.403388C115.907 1.85559 137.12 12.505 177.853 39.2497C177.974 39.3304 179.022 40.2178 180.313 41.2666H191C188.621 39.4514 186.281 37.5958 185.959 37.3134Z" fill="#656362"/>
<path fill-rule="evenodd" clip-rule="evenodd" d="M181.402 39.6934C158.172 23.1545 129.538 3.34812 92.314 0.887454C123.005 4.47761 148.977 19.0399 172.932 39.8548C173.295 40.1371 173.86 40.6616 174.505 41.307H183.458C182.773 40.7422 182.087 40.2178 181.402 39.6934Z" fill="#16408D"/>
<path fill-rule="evenodd" clip-rule="evenodd" d="M24.4396 41.5893H17.6643C20.5277 56.4744 33.4331 64.9859 51.4603 66.3977C51.5813 66.3977 52.1459 66.3977 52.2669 66.4381L54.0414 58.2896C53.8397 58.2896 53.1541 58.2493 52.9525 58.2493C36.6997 57.0391 27.2627 50.948 24.4396 41.5893Z" fill="#16408D"/>
<path fill-rule="evenodd" clip-rule="evenodd" d="M73.1172 0.0806777C54.3237 0.645422 23.1491 7.09964 17.8256 28.7213H23.9153C26.9804 12.8681 45.2496 0.806777 84.1271 0.645422C86.9098 0.645422 89.6119 0.726099 92.314 0.887454C87.4745 0.322711 82.5543 0 77.4728 0H77.0291C75.7386 0 74.4481 0.0403389 73.1172 0.0806777Z" fill="#16408D"/>
<path fill-rule="evenodd" clip-rule="evenodd" d="M9.51774 40.3388H47.9517V37.8378H9.51774V40.3388Z" fill="#16408D"/>
<path fill-rule="evenodd" clip-rule="evenodd" d="M4.75887 36.3856H43.1928V33.925H4.75887V36.3856Z" fill="#16408D"/>
<path fill-rule="evenodd" clip-rule="evenodd" d="M0 32.4728H38.4339V30.0121H0V32.4728Z" fill="#16408D"/>
<path fill-rule="evenodd" clip-rule="evenodd" d="M95.9033 38.3622V29.0036C95.9033 26.4623 94.6128 25.2118 92.0317 25.2118H64.527V28.6809H91.3461C92.193 28.6809 92.6366 29.1246 92.6366 30.0121V32.1097H72.3509V35.5789H92.6366V37.6765C92.6366 38.6043 92.193 39.048 91.3057 39.048H64.527V42.5575L91.951 42.5171C94.5724 42.5171 95.9033 41.1456 95.9033 38.3622Z" fill="#16408D"/>
<path fill-rule="evenodd" clip-rule="evenodd" d="M105.542 25.4538L100.057 30.9399C99.6943 31.3029 99.4523 31.8273 99.4523 32.3921V42.1138H102.679V33.8846C102.679 33.3199 102.88 32.7955 103.284 32.4324L106.833 28.8423C107.196 28.4792 107.639 28.2775 108.123 28.2775H124.577C125.626 28.2775 126.473 29.165 126.473 30.2945V42.1541H129.699V26.906C129.699 25.8169 128.852 24.8891 127.804 24.8891H106.833C106.429 24.8891 105.945 25.0908 105.542 25.4538Z" fill="#666263"/>
<path d="M24.3186 81.6862H31.1343V83.9451C31.1343 85.1956 30.1261 86.2041 28.8758 86.2041H22.0602C20.81 86.2041 19.8017 85.1956 19.8017 83.9451H17.5433C17.6239 86.5268 19.6001 88.5034 22.1005 88.5034H28.9162C31.4569 88.5034 33.4734 86.3655 33.4734 83.9451V77.1279C33.4734 74.6269 31.3359 72.5696 28.9162 72.5696H22.0602C19.5194 72.5696 17.503 74.7075 17.503 77.1279H19.7614C19.7614 75.8774 20.7696 74.8689 22.0198 74.8689H28.8355C30.0857 74.8689 31.094 75.8774 31.094 77.1279V79.3868H24.3186V81.6862ZM37.708 72.6099H35.4495V88.5034H37.708V81.6862H49.0405V88.5034H51.299V72.6099H49.0405V79.4272H37.708V72.6099ZM55.8562 74.8689H69.4875V72.6099H53.5978V88.5034H69.4875V86.2444H55.8562V81.6862H67.1888V79.4272H55.8562V74.8689ZM84.9337 79.4272C84.9337 80.6777 83.9255 81.6862 82.6753 81.6862H73.6011V74.8689H82.6753C83.9255 74.8689 84.9337 75.8774 84.9337 77.1279V79.4272ZM87.1921 77.1682C87.1115 74.6672 85.095 72.6099 82.6349 72.6099H71.3024V88.5034H73.5608V83.9451H82.6349C85.1757 83.9451 87.1921 81.8072 87.1921 79.3868V77.1682ZM102.598 74.8689V72.6099H88.9667V88.5034H91.2251V74.8689H102.598ZM117.117 83.9451C117.117 85.1956 116.108 86.2041 114.858 86.2041H108.042C106.792 86.2041 105.784 85.1956 105.784 83.9451V77.1279C105.784 75.8774 106.792 74.8689 108.042 74.8689H114.858C116.108 74.8689 117.117 75.8774 117.117 77.1279V83.9451ZM119.415 77.1682C119.415 74.7075 117.278 72.6099 114.858 72.6099H108.042C105.542 72.6099 103.485 74.6672 103.485 77.1682V83.9855C103.485 86.4865 105.502 88.5438 108.042 88.5438H114.858C117.359 88.5438 119.415 86.4865 119.415 83.9855V77.1682ZM125.989 72.6099C123.448 72.6906 121.432 74.7075 121.432 77.1682V88.5034H123.69V77.1682C123.69 75.9177 124.698 74.9092 125.949 74.9092H135.023V88.5438H137.281V72.6503H125.989V72.6099ZM150.953 74.8689C152.203 74.8689 153.211 75.8774 153.211 77.1279V81.6862H141.879V77.1279C141.879 75.8774 142.887 74.8689 144.137 74.8689H150.953ZM155.47 77.1682C155.389 74.6672 153.373 72.6099 150.913 72.6099H144.097C141.556 72.6099 139.54 74.7479 139.54 77.1682V88.5034H141.798V83.9451H153.131V88.5034H155.389V77.1682H155.47ZM171.36 83.9451C171.36 85.1956 170.351 86.2041 169.101 86.2041H160.027V80.9197H169.101C170.351 80.9197 171.36 81.9282 171.36 83.1787V83.9451ZM173.658 83.219C173.578 80.718 171.561 78.6607 169.101 78.6607H160.027V74.8689H171.36V72.6099H157.728V88.5034H169.061C171.602 88.5034 173.618 86.3655 173.618 83.9451V83.219H173.658Z" fill="#16408D"/>
<path d="M127.764 95.8451H132.522V99.879H131.232V98.5881C130.466 99.4352 129.215 100 127.562 100C124.739 100 123.005 98.5075 123.005 96.0871C123.005 93.6668 124.779 92.1743 127.885 92.1743C130.95 92.1743 132.401 93.4651 132.522 95.1997H131.232C131.111 94.4736 130.627 93.2634 127.885 93.2634C124.698 93.2634 124.295 95.1997 124.295 96.0871C124.295 97.0149 124.698 98.9109 127.885 98.9109C130.385 98.9109 131.232 97.5797 131.232 96.9342H127.764V95.8451Z" fill="#16408D"/>
<path d="M140.629 97.5393L142.08 99.879H140.548L139.177 97.6603H134.902V99.879H133.611V92.2549H139.58C141.314 92.2549 142.484 93.2634 142.484 94.9576C142.524 96.2888 141.798 97.2166 140.629 97.5393ZM134.942 96.5712H139.096C139.943 96.5712 141.234 96.5712 141.234 94.9576C141.234 93.3441 139.903 93.3441 139.096 93.3441H134.942V96.5712Z" fill="#16408D"/>
<path d="M143.29 96.0468C143.29 93.6265 144.742 92.1339 148.09 92.1339C151.437 92.1339 152.889 93.6265 152.889 96.0468C152.889 98.4671 151.437 99.9597 148.09 99.9597C144.742 100 143.29 98.5075 143.29 96.0468ZM151.558 96.0468C151.558 93.9492 150.388 93.2231 148.09 93.2231C145.791 93.2231 144.621 93.9492 144.621 96.0468C144.621 98.1847 145.791 98.8705 148.09 98.8705C150.388 98.9108 151.558 98.1847 151.558 96.0468Z" fill="#16408D"/>
<path d="M158.777 100C155.43 100 153.978 98.7092 153.978 96.0871V92.2953H155.268V96.0871C155.268 97.3376 155.55 98.9109 158.736 98.9109C161.923 98.9109 162.205 97.2973 162.205 96.0871V92.2953H163.495V96.0871C163.536 98.7092 162.084 100 158.777 100Z" fill="#16408D"/>
<path d="M173.537 94.9576C173.537 96.6519 172.368 97.6603 170.634 97.6603H165.955V99.879H164.665V92.2549H170.634C172.368 92.2549 173.537 93.2634 173.537 94.9576ZM172.247 94.9576C172.247 93.3441 170.916 93.3441 170.109 93.3441H165.955V96.5712H170.109C170.916 96.5712 172.247 96.5712 172.247 94.9576Z" fill="#16408D"/>
</svg>
